# xmcd
#
# Track frame offsets:
#	150
#	8185
#	28760
#	48007
#	69957
#	90845
#	113000
#	119735
#	143932
#	162662
#	184870
#	207252
#	231987
#	243402
#	266005
#
# Disc length: 3642 seconds
#
# Revision: 3
# Processed by: cddbd v1.5.1PL0 Copyright (c) Steve Scherf et al.
# Submitted via: EasyCDDAExtractor 8.2.2.1
#
DISCID=ce0e380f
DTITLE=DoubleZ - In Z Mood
DYEAR=1992
DGENRE=blues
TTITLE0=Welcome To Z Parté
TTITLE1=Girl In Your Dreams
TTITLE2=Hott Spot
TTITLE3=Get U Alone
TTITLE4=Let's Ge tSerious
TTITLE5=Say Please
TTITLE6=Back 2 Bassics
TTITLE7=We Got To Love Each Other
TTITLE8=In His Eyes
TTITLE9=4 You
TTITLE10=It's No Secret
TTITLE11=Victim Of Love
TTITLE12=Play
TTITLE13=Bored 2 Tears (Remix)
TTITLE14=In Z Mood
EXTD=MillenniumMusicProjectFormat
EXTT0=
EXTT1=
EXTT2=
EXTT3=
EXTT4=
EXTT5=
EXTT6=
EXTT7=
EXTT8=
EXTT9=
EXTT10=
EXTT11=
EXTT12=
EXTT13=
EXTT14=
PLAYORDER=
